<?xml version="1.0" standalone="no"?>
<!DOCTYPE svg PUBLIC "-//W3C//DTD SVG 20010904//EN"
 "http://www.w3.org/TR/2001/REC-SVG-20010904/DTD/svg10.dtd">
<svg version="1.0" xmlns="http://www.w3.org/2000/svg"
 width="512.000000pt" height="512.000000pt" viewBox="0 0 512.000000 512.000000"
 preserveAspectRatio="xMidYMid meet">
<metadata>
Created by potrace 1.11, written by Peter Selinger 2001-2013
</metadata>
<g transform="translate(0.000000,512.000000) scale(0.100000,-0.100000)"
fill="#000000" stroke="none">
<path d="M2379 5116 c-2 -2 -35 -6 -74 -10 -187 -16 -414 -67 -616 -139 -621
-221 -1144 -694 -1437 -1300 -56 -115 -135 -320 -147 -377 -2 -8 -10 -40 -19
-70 -33 -114 -58 -256 -76 -430 -8 -81 -5 -463 5 -520 3 -19 13 -78 21 -130
137 -854 719 -1594 1524 -1937 152 -65 381 -134 522 -158 18 -3 40 -7 48 -10
14 -3 49 -8 210 -25 72 -8 448 -5 500 4 14 2 45 7 70 10 25 4 56 9 70 11 14 3
40 7 57 10 313 51 700 214 983 413 320 225 611 546 774 852 16 30 37 69 46 85
48 86 160 367 175 435 2 8 10 40 19 70 55 195 80 399 81 655 0 166 -6 285 -19
360 -3 17 -8 44 -10 60 -15 109 -111 465 -126 465 -3 0 -49 -48 -102 -107 -53
-60 -105 -117 -115 -128 -10 -11 -36 -39 -56 -61 l-37 -42 16 -68 c22 -96 23
-103 30 -159 3 -27 8 -57 11 -65 9 -27 11 -383 3 -455 -5 -38 -12 -92 -15
-120 -4 -27 -15 -90 -26 -140 -102 -465 -367 -895 -745 -1205 -326 -269 -716
-431 -1149 -479 -103 -12 -420 -6 -510 8 -390 64 -684 185 -990 409 -322 235
-592 590 -732 962 -28 74 -70 203 -77 240 -3 14 -12 55 -20 92 -28 127 -38
223 -41 393 -4 226 8 338 59 570 38 169 145 423 251 595 32 52 61 97 65 100 3
3 30 38 59 79 103 143 268 308 426 426 268 201 553 327 905 400 16 3 80 14
128 21 99 16 465 9 568 -10 17 -3 46 -8 66 -10 65 -9 221 -48 317 -81 248 -84
469 -207 677 -377 l72 -58 83 92 c46 50 92 100 102 112 10 12 34 38 53 58 l34
37 -99 79 c-296 238 -646 412 -996 497 -105 25 -189 41 -265 51 -25 3 -56 8
-70 10 -28 6 -456 15 -461 10z"/>
<path d="M4770 4419 c-25 -28 -52 -58 -60 -67 -8 -10 -62 -69 -120 -132 -126
-138 -107 -117 -210 -231 -47 -52 -108 -119 -136 -149 -27 -30 -72 -79 -100
-109 -27 -30 -56 -62 -64 -71 -8 -9 -53 -58 -100 -110 -47 -52 -92 -101 -100
-110 -21 -23 -191 -208 -215 -234 -54 -60 -192 -212 -205 -226 -8 -8 -53 -58
-100 -110 -47 -52 -94 -104 -105 -116 -11 -11 -38 -41 -60 -65 -68 -76 -240
-264 -245 -269 -3 -3 -48 -52 -100 -110 -52 -58 -114 -125 -137 -150 -22 -25
-61 -67 -86 -94 l-45 -49 -73 70 c-41 39 -94 90 -119 113 -85 80 -223 212
-580 552 -251 239 -293 278 -301 278 -7 0 -141 -135 -232 -235 -37 -40 -43
-52 -33 -60 12 -9 93 -86 380 -358 33 -33 123 -118 200 -190 76 -73 162 -154
191 -182 119 -113 391 -372 420 -400 18 -16 62 -59 99 -95 l66 -65 48 51 c73
78 138 149 252 274 84 94 168 185 285 314 6 6 57 63 115 126 57 63 109 120
115 126 5 6 44 48 85 94 41 46 80 88 86 94 5 6 59 65 119 131 60 66 114 125
120 131 20 22 180 197 197 216 9 11 53 59 98 108 45 49 89 97 98 108 9 10 53
58 97 106 44 49 89 98 100 110 11 12 61 67 111 122 50 54 142 155 204 224 63
69 116 127 119 130 3 3 46 50 96 105 49 55 107 118 127 140 21 22 38 44 38 48
0 5 -28 34 -62 66 -173 160 -220 201 -226 201 -4 -1 -27 -24 -52 -51z"/>
</g>
</svg>
